<svg xmlns="http://www.w3.org/2000/svg" width="224.88" viewBox="0 0 224.88 60" height="60" version="1.0"><g><g><g><path d="M 11.140625 -25.71875 C 12.503906 -25.71875 13.835938 -25.515625 15.140625 -25.109375 C 16.453125 -24.710938 17.425781 -24.320312 18.0625 -23.9375 L 18.984375 -23.328125 L 16.65625 -18.734375 C 16.46875 -18.859375 16.207031 -19.015625 15.875 -19.203125 C 15.550781 -19.398438 14.941406 -19.660156 14.046875 -19.984375 C 13.148438 -20.316406 12.316406 -20.484375 11.546875 -20.484375 C 10.578125 -20.484375 9.832031 -20.273438 9.3125 -19.859375 C 8.800781 -19.453125 8.546875 -18.90625 8.546875 -18.21875 C 8.546875 -17.863281 8.664062 -17.535156 8.90625 -17.234375 C 9.15625 -16.941406 9.570312 -16.628906 10.15625 -16.296875 C 10.75 -15.960938 11.269531 -15.691406 11.71875 -15.484375 C 12.164062 -15.285156 12.863281 -14.976562 13.8125 -14.5625 C 15.4375 -13.875 16.828125 -12.929688 17.984375 -11.734375 C 19.140625 -10.546875 19.71875 -9.195312 19.71875 -7.6875 C 19.71875 -6.238281 19.457031 -4.972656 18.9375 -3.890625 C 18.414062 -2.804688 17.695312 -1.957031 16.78125 -1.34375 C 15.875 -0.726562 14.867188 -0.273438 13.765625 0.015625 C 12.671875 0.304688 11.476562 0.453125 10.1875 0.453125 C 9.09375 0.453125 8.015625 0.335938 6.953125 0.109375 C 5.890625 -0.109375 5 -0.382812 4.28125 -0.71875 C 3.570312 -1.050781 2.929688 -1.378906 2.359375 -1.703125 C 1.785156 -2.035156 1.367188 -2.316406 1.109375 -2.546875 L 0.703125 -2.875 L 3.578125 -7.71875 C 3.828125 -7.507812 4.164062 -7.242188 4.59375 -6.921875 C 5.019531 -6.609375 5.78125 -6.1875 6.875 -5.65625 C 7.96875 -5.125 8.929688 -4.859375 9.765625 -4.859375 C 12.191406 -4.859375 13.40625 -5.6875 13.40625 -7.34375 C 13.40625 -7.6875 13.316406 -8.003906 13.140625 -8.296875 C 12.972656 -8.597656 12.671875 -8.894531 12.234375 -9.1875 C 11.796875 -9.488281 11.40625 -9.722656 11.0625 -9.890625 C 10.726562 -10.066406 10.175781 -10.332031 9.40625 -10.6875 C 8.644531 -11.050781 8.082031 -11.328125 7.71875 -11.515625 C 6.1875 -12.265625 5 -13.207031 4.15625 -14.34375 C 3.320312 -15.476562 2.90625 -16.695312 2.90625 -18 C 2.90625 -20.257812 3.738281 -22.109375 5.40625 -23.546875 C 7.082031 -24.992188 8.992188 -25.71875 11.140625 -25.71875 Z M 11.140625 -25.71875" transform="translate(67.918 38.26)"/></g></g></g><g><g><g><path d="M 3.3125 -1.859375 C 1.570312 -3.410156 0.703125 -5.398438 0.703125 -7.828125 C 0.703125 -10.265625 1.609375 -12.257812 3.421875 -13.8125 C 5.242188 -15.375 7.488281 -16.15625 10.15625 -16.15625 C 12.789062 -16.15625 15.007812 -15.367188 16.8125 -13.796875 C 18.625 -12.234375 19.53125 -10.242188 19.53125 -7.828125 C 19.53125 -5.421875 18.644531 -3.4375 16.875 -1.875 C 15.113281 -0.320312 12.875 0.453125 10.15625 0.453125 C 7.34375 0.453125 5.0625 -0.316406 3.3125 -1.859375 Z M 7.515625 -10.5 C 6.804688 -9.800781 6.453125 -8.910156 6.453125 -7.828125 C 6.453125 -6.753906 6.789062 -5.875 7.46875 -5.1875 C 8.144531 -4.5 9.03125 -4.15625 10.125 -4.15625 C 11.1875 -4.15625 12.0625 -4.503906 12.75 -5.203125 C 13.4375 -5.898438 13.78125 -6.78125 13.78125 -7.84375 C 13.78125 -8.914062 13.425781 -9.800781 12.71875 -10.5 C 12.007812 -11.195312 11.144531 -11.546875 10.125 -11.546875 C 9.09375 -11.546875 8.222656 -11.195312 7.515625 -10.5 Z M 7.515625 -10.5" transform="translate(87.723 38.26)"/></g></g></g><g><g><g><path d="M 10.1875 -11.71875 C 9.164062 -11.71875 8.285156 -11.335938 7.546875 -10.578125 C 6.816406 -9.828125 6.453125 -8.921875 6.453125 -7.859375 C 6.453125 -6.785156 6.816406 -5.867188 7.546875 -5.109375 C 8.285156 -4.359375 9.164062 -3.984375 10.1875 -3.984375 C 10.675781 -3.984375 11.140625 -4.039062 11.578125 -4.15625 C 12.023438 -4.28125 12.347656 -4.40625 12.546875 -4.53125 L 12.828125 -4.71875 L 14.65625 -0.953125 C 14.519531 -0.847656 14.320312 -0.71875 14.0625 -0.5625 C 13.8125 -0.414062 13.226562 -0.210938 12.3125 0.046875 C 11.40625 0.316406 10.429688 0.453125 9.390625 0.453125 C 7.085938 0.453125 5.0625 -0.351562 3.3125 -1.96875 C 1.570312 -3.59375 0.703125 -5.539062 0.703125 -7.8125 C 0.703125 -10.09375 1.570312 -12.050781 3.3125 -13.6875 C 5.0625 -15.332031 7.085938 -16.15625 9.390625 -16.15625 C 10.429688 -16.15625 11.390625 -16.03125 12.265625 -15.78125 C 13.148438 -15.539062 13.773438 -15.300781 14.140625 -15.0625 L 14.65625 -14.6875 L 12.828125 -10.984375 C 12.148438 -11.472656 11.269531 -11.71875 10.1875 -11.71875 Z M 10.1875 -11.71875" transform="translate(107.192 38.26)"/></g></g></g><g><g><g><path d="M 2.359375 -24.453125 C 2.992188 -25.085938 3.75 -25.40625 4.625 -25.40625 C 5.5 -25.40625 6.253906 -25.085938 6.890625 -24.453125 C 7.523438 -23.828125 7.84375 -23.070312 7.84375 -22.1875 C 7.84375 -21.3125 7.523438 -20.554688 6.890625 -19.921875 C 6.253906 -19.296875 5.5 -18.984375 4.625 -18.984375 C 3.75 -18.984375 2.992188 -19.296875 2.359375 -19.921875 C 1.722656 -20.554688 1.40625 -21.3125 1.40625 -22.1875 C 1.40625 -23.070312 1.722656 -23.828125 2.359375 -24.453125 Z M 1.84375 -15.703125 L 1.84375 0 L 7.25 0 L 7.25 -15.703125 Z M 1.84375 -15.703125" transform="translate(121.456 38.26)"/></g></g></g><g><g><g><path d="M 2.90625 -1.9375 C 1.4375 -3.539062 0.703125 -5.503906 0.703125 -7.828125 C 0.703125 -10.160156 1.4375 -12.128906 2.90625 -13.734375 C 4.375 -15.347656 6.242188 -16.15625 8.515625 -16.15625 C 10.585938 -16.15625 12.300781 -15.503906 13.65625 -14.203125 L 13.65625 -15.703125 L 19.0625 -15.703125 L 19.0625 0 L 13.71875 0 L 13.71875 -1.78125 L 13.65625 -1.78125 C 12.300781 -0.289062 10.585938 0.453125 8.515625 0.453125 C 6.242188 0.453125 4.375 -0.34375 2.90625 -1.9375 Z M 7.515625 -10.5 C 6.804688 -9.800781 6.453125 -8.910156 6.453125 -7.828125 C 6.453125 -6.753906 6.789062 -5.875 7.46875 -5.1875 C 8.144531 -4.5 9.03125 -4.15625 10.125 -4.15625 C 11.1875 -4.15625 12.0625 -4.503906 12.75 -5.203125 C 13.4375 -5.898438 13.78125 -6.78125 13.78125 -7.84375 C 13.78125 -8.914062 13.425781 -9.800781 12.71875 -10.5 C 12.007812 -11.195312 11.144531 -11.546875 10.125 -11.546875 C 9.09375 -11.546875 8.222656 -11.195312 7.515625 -10.5 Z M 7.515625 -10.5" transform="translate(129.936 38.26)"/></g></g></g><g><g><g><path d="M 1.84375 0 L 1.84375 -26.328125 L 7.25 -26.328125 L 7.25 0 Z M 1.84375 0" transform="translate(150.077 38.26)"/></g></g></g><g><g><g><path d="M 2.359375 -24.453125 C 2.992188 -25.085938 3.75 -25.40625 4.625 -25.40625 C 5.5 -25.40625 6.253906 -25.085938 6.890625 -24.453125 C 7.523438 -23.828125 7.84375 -23.070312 7.84375 -22.1875 C 7.84375 -21.3125 7.523438 -20.554688 6.890625 -19.921875 C 6.253906 -19.296875 5.5 -18.984375 4.625 -18.984375 C 3.75 -18.984375 2.992188 -19.296875 2.359375 -19.921875 C 1.722656 -20.554688 1.40625 -21.3125 1.40625 -22.1875 C 1.40625 -23.070312 1.722656 -23.828125 2.359375 -24.453125 Z M 1.84375 -15.703125 L 1.84375 0 L 7.25 0 L 7.25 -15.703125 Z M 1.84375 -15.703125" transform="translate(158.404 38.26)"/></g></g></g><g><g><g><path d="M 17.015625 -15.703125 L 9.25 -4.125 L 16.40625 -4.125 L 16.40625 0 L 0.15625 0 L 7.921875 -11.578125 L 1.4375 -11.578125 L 1.4375 -15.703125 Z M 17.015625 -15.703125" transform="translate(166.883 38.26)"/></g></g></g><g><g><g><path d="M 17.71875 -7.09375 L 6.34375 -7.09375 C 6.34375 -6 6.695312 -5.1875 7.40625 -4.65625 C 8.125 -4.125 8.898438 -3.859375 9.734375 -3.859375 C 10.609375 -3.859375 11.300781 -3.972656 11.8125 -4.203125 C 12.320312 -4.441406 12.90625 -4.90625 13.5625 -5.59375 L 17.484375 -3.640625 C 15.847656 -0.910156 13.128906 0.453125 9.328125 0.453125 C 6.960938 0.453125 4.929688 -0.351562 3.234375 -1.96875 C 1.546875 -3.59375 0.703125 -5.546875 0.703125 -7.828125 C 0.703125 -10.117188 1.546875 -12.078125 3.234375 -13.703125 C 4.929688 -15.335938 6.960938 -16.15625 9.328125 -16.15625 C 11.816406 -16.15625 13.84375 -15.4375 15.40625 -14 C 16.96875 -12.5625 17.75 -10.507812 17.75 -7.84375 C 17.75 -7.46875 17.738281 -7.21875 17.71875 -7.09375 Z M 6.484375 -10.09375 L 12.453125 -10.09375 C 12.335938 -10.914062 12.019531 -11.546875 11.5 -11.984375 C 10.976562 -12.421875 10.304688 -12.640625 9.484375 -12.640625 C 8.585938 -12.640625 7.875 -12.40625 7.34375 -11.9375 C 6.8125 -11.46875 6.523438 -10.851562 6.484375 -10.09375 Z M 6.484375 -10.09375" transform="translate(183.29 38.26)"/></g></g></g><g><g><g><path d="M 2.90625 -1.9375 C 1.4375 -3.539062 0.703125 -5.503906 0.703125 -7.828125 C 0.703125 -10.160156 1.4375 -12.128906 2.90625 -13.734375 C 4.375 -15.347656 6.242188 -16.15625 8.515625 -16.15625 C 10.585938 -16.15625 12.300781 -15.503906 13.65625 -14.203125 L 13.65625 -26.328125 L 19.0625 -26.328125 L 19.0625 0 L 13.71875 0 L 13.71875 -1.78125 L 13.65625 -1.78125 C 12.300781 -0.289062 10.585938 0.453125 8.515625 0.453125 C 6.242188 0.453125 4.375 -0.34375 2.90625 -1.9375 Z M 7.515625 -10.5 C 6.804688 -9.800781 6.453125 -8.910156 6.453125 -7.828125 C 6.453125 -6.753906 6.789062 -5.875 7.46875 -5.1875 C 8.144531 -4.5 9.03125 -4.15625 10.125 -4.15625 C 11.1875 -4.15625 12.0625 -4.503906 12.75 -5.203125 C 13.4375 -5.898438 13.78125 -6.78125 13.78125 -7.84375 C 13.78125 -8.914062 13.425781 -9.800781 12.71875 -10.5 C 12.007812 -11.195312 11.144531 -11.546875 10.125 -11.546875 C 9.09375 -11.546875 8.222656 -11.195312 7.515625 -10.5 Z M 7.515625 -10.5" transform="translate(200.983 38.26)"/></g></g></g><path fill="#5CE1E6" d="M 11.558594 8.828125 L 63.546875 8.828125 L 63.546875 41.414062 L 11.558594 41.414062 L 11.558594 8.828125"/><path fill="#03989E" d="M 11.558594 14.867188 L 11.558594 41.414062 L 5.621094 46.140625 L 5.621094 13.554688 L 11.558594 8.828125 L 11.558594 14.867188"/><path fill="#00C2CB" d="M 63.546875 41.414062 L 57.609375 46.140625 L 5.621094 46.140625 L 11.558594 41.414062 L 63.546875 41.414062"/><path fill="#00C2CB" d="M 16.523438 58.144531 L 16.523438 42.957031 L 31.714844 42.957031 L 16.523438 58.144531"/><path fill="#5CE1E6" d="M 18.902344 55.828125 L 18.902344 40.636719 L 34.09375 40.636719 L 18.902344 55.828125"/><g><g><g><path d="M 9.386719 -7.375 C 8.714844 -7.375 8.113281 -7.105469 7.644531 -6.703125 C 7.171875 -6.167969 6.972656 -5.632812 6.972656 -4.960938 L 6.972656 -2.679688 C 6.972656 -2.011719 7.171875 -1.40625 7.644531 -1.003906 C 8.113281 -0.46875 8.714844 -0.269531 9.386719 -0.269531 L 11.664062 -0.269531 C 12.335938 -0.269531 12.871094 -0.46875 13.339844 -1.003906 C 13.808594 -1.40625 14.078125 -2.011719 14.078125 -2.679688 L 14.078125 -4.960938 C 14.078125 -5.632812 13.808594 -6.167969 13.339844 -6.703125 C 12.871094 -7.105469 12.335938 -7.375 11.664062 -7.375 Z M 9.386719 -7.375" transform="translate(14.93 28.192)"/></g></g></g><g><g><g><path d="M 9.386719 -7.375 C 8.714844 -7.375 8.113281 -7.105469 7.644531 -6.703125 C 7.171875 -6.167969 6.972656 -5.632812 6.972656 -4.960938 L 6.972656 -2.679688 C 6.972656 -2.011719 7.171875 -1.40625 7.644531 -1.003906 C 8.113281 -0.46875 8.714844 -0.269531 9.386719 -0.269531 L 11.664062 -0.269531 C 12.335938 -0.269531 12.871094 -0.46875 13.339844 -1.003906 C 13.808594 -1.40625 14.078125 -2.011719 14.078125 -2.679688 L 14.078125 -4.960938 C 14.078125 -5.632812 13.808594 -6.167969 13.339844 -6.703125 C 12.871094 -7.105469 12.335938 -7.375 11.664062 -7.375 Z M 9.386719 -7.375" transform="translate(28.029 28.192)"/></g></g></g><g><g><g><path d="M 9.386719 -7.375 C 8.714844 -7.375 8.113281 -7.105469 7.644531 -6.703125 C 7.171875 -6.167969 6.972656 -5.632812 6.972656 -4.960938 L 6.972656 -2.679688 C 6.972656 -2.011719 7.171875 -1.40625 7.644531 -1.003906 C 8.113281 -0.46875 8.714844 -0.269531 9.386719 -0.269531 L 11.664062 -0.269531 C 12.335938 -0.269531 12.871094 -0.46875 13.339844 -1.003906 C 13.808594 -1.40625 14.078125 -2.011719 14.078125 -2.679688 L 14.078125 -4.960938 C 14.078125 -5.632812 13.808594 -6.167969 13.339844 -6.703125 C 12.871094 -7.105469 12.335938 -7.375 11.664062 -7.375 Z M 9.386719 -7.375" transform="translate(41.127 28.192)"/></g></g></g></svg>