<svg xmlns="http://www.w3.org/2000/svg" width="48" viewBox="0 0 48 30" height="30" version="1.0"><defs><clipPath id="a"><path d="M 1.441406 0.078125 L 32 0.078125 L 32 26 L 1.441406 26 Z M 1.441406 0.078125"/></clipPath><clipPath id="b"><path d="M 21 8 L 46.441406 8 L 46.441406 29 L 21 29 Z M 21 8"/></clipPath></defs><g clip-path="url(#a)"><path fill="#FFF" d="M 19.707031 18.832031 L 19.707031 10.636719 C 19.707031 8.519531 21.335938 6.800781 23.34375 6.800781 L 31.296875 6.800781 L 31.296875 4.847656 C 31.296875 2.226562 29.28125 0.101562 26.796875 0.101562 L 5.9375 0.101562 C 3.457031 0.101562 1.441406 2.226562 1.441406 4.847656 L 1.441406 14.988281 C 1.441406 17.609375 3.457031 19.734375 5.9375 19.734375 L 9.382812 19.734375 L 9.382812 25.335938 C 9.382812 25.644531 9.800781 25.863281 10.019531 25.605469 C 11.660156 23.648438 13.300781 21.691406 14.941406 19.734375 L 19.8125 19.734375 C 19.746094 19.445312 19.707031 19.144531 19.707031 18.832031 Z M 19.707031 18.832031"/></g><g clip-path="url(#b)"><path fill="#FFF" d="M 21.769531 11.988281 L 21.769531 21.136719 C 21.769531 23.046875 23.238281 24.597656 25.050781 24.597656 L 33.695312 24.597656 C 34.890625 26.023438 36.085938 27.449219 37.28125 28.875 C 37.441406 29.066406 37.75 28.90625 37.75 28.683594 L 37.75 24.597656 L 43.160156 24.597656 C 44.972656 24.597656 46.441406 23.046875 46.441406 21.136719 L 46.441406 11.988281 C 46.441406 10.078125 44.972656 8.527344 43.160156 8.527344 L 25.050781 8.527344 C 23.238281 8.527344 21.769531 10.078125 21.769531 11.988281 Z M 21.769531 11.988281"/></g><path fill="#FF5757" d="M 28.476562 14.695312 C 28.476562 17.714844 33.890625 21.398438 33.890625 21.398438 C 33.890625 21.398438 39.28125 17.6875 39.304688 14.695312 C 39.304688 13.152344 38.046875 11.890625 36.503906 11.890625 C 35.316406 11.890625 34.292969 12.652344 33.890625 13.695312 C 33.488281 12.652344 32.464844 11.890625 31.28125 11.890625 C 29.738281 11.890625 28.476562 13.152344 28.476562 14.695312"/></svg>